Patient4_TMGait_0pt6_02_left_11_EMG.mot
version=1
nRows=33
nColumns=33
inDegrees=no
endheader
time	1LAddLong	2LGlutMax	3LGlutMed	4LIliopsoas	5LSemiMemb	6LBicFemLong	7LRecFem	8LVastMed	9LVastLat	10LGasMed	11LTibAnt	12lTibPost	13LPeroneusLong	14LSol	15LExtDigLong	16LFlexDigLong	17RAddLong	18RGlutMax	19RGlutMed	20RIliopsoas	21RSemiMemb	22RBicFemLong	23RRecFem	24RVastMed	25RVastLat	26RGasMed	27RTibAnt	28RTibPost	29RPeroneusLong	30RSol	31RExtDigLong	32RFlexDigLong
13.57	0.006561	0.081177	-0.052795	0.010529	-0.002899	-0.020599	0.054474	0.005646	0.14252	0.037231	-0.014191	0.013275	0.034943	0.016937	0.27313	0.018616	-0.016327	-0.1236	0.19867	-0.027313	0.006104	0.11856	-0.19089	0.061493	-0.41916	0.053101	0.44098	-0.01358	-0.057068	0.19714	-0.001526	0.002899
13.571	0.006561	0.065308	-0.028534	-0.012054	-0.002899	-0.022736	0.058136	0.001068	0.14038	0.030823	-0.076599	0.01297	0.035095	-0.001373	0.41168	0.017548	0.007782	-0.18478	0.18906	-0.006409	-0.040588	0.11154	0.023346	0.019684	-0.14694	0.033417	0.34515	-0.067902	-0.53497	0.14984	-0.002899	0.006104
13.572	0.003204	0.090637	-0.026245	0.007172	-0.007019	-0.053711	0.049744	0.010376	0.14023	0.014954	-0.091553	0.006714	0.017853	-0.023804	0.41748	0.006104	0.029755	-0.17563	0.21027	-0.010223	-0.073853	0.084839	-0.11429	0.022888	-0.033264	0.03006	-0.44662	-0.005035	-0.54779	0.50613	-0.001984	0.007172
13.573	0.008698	0.064545	-0.032959	0.007935	0.006256	-0.050201	0.057831	0.000153	0.13702	-0.029907	-0.054169	0.011139	0.049591	-0.032196	-0.29266	0.020294	0.027924	-0.24597	0.092621	-0.073547	-0.079498	0.14008	-0.27618	0.027618	0.12665	0.024414	-0.74005	0.071259	0.64117	0.62439	0.002747	0.003662
13.574	0.004425	0.056458	-0.055237	0.004272	-0.003052	-0.033875	0.047302	0.006104	0.14099	-0.057678	-0.014343	0.009613	0.087738	0.00946	-0.34805	0.010529	0.016632	-0.26337	-0.033264	-0.21469	-0.051575	0.0383	-0.24094	0.081024	0.18982	0.020447	-0.32486	0.023956	-0.25971	0.36346	-0.001831	0.009613
13.575	0.005188	0.053558	-0.062408	0.00351	-0.000458	-0.060577	0.053711	0.020599	0.14877	-0.074921	-0.041962	-0.000153	0.17761	0.073242	-0.45075	0.016022	0.011902	-0.24017	0.00824	-0.21316	-0.024414	0.099792	-0.05722	0.041046	0.10407	0.020142	-0.42755	0.001831	-0.27969	0.061035	0	0.01236
13.576	0.015106	0.064545	-0.065613	0.003967	-0.028534	-0.062103	0.054779	-0.010376	0.15305	-0.078125	-0.04837	0.010223	0.19043	0.063629	-0.46783	-0.010986	0.003967	-0.1622	0.18982	-0.13825	-0.045319	0.15167	0.008698	0.032501	0.026245	0.021973	-0.46051	-0.011902	0.37308	-0.14618	0.001678	0.003967
13.577	0.013733	0.065002	-0.076904	0.019684	-0.032654	-0.13168	0.058136	-0.010071	0.15213	-0.015564	0.061798	0.010223	0.059814	-0.064087	-0.19531	0.005188	0.009766	-0.19669	0.18433	0.005798	0	0.075378	0.026855	0.057526	-0.013123	0.015106	-0.439	0.00412	0.48462	-0.11612	-0.006409	0.001831
13.578	0.007019	0.046539	-0.033722	-0.003967	-0.010223	-0.15991	0.032654	0.003357	0.13718	0.007477	0.075684	0.002289	0.021667	-0.062714	0.13672	0.014648	0.016174	-0.19318	0.30655	0.18738	-0.10559	0.048828	0.053558	-0.023346	-0.036163	0.020905	-0.082855	-0.010681	0.55939	-0.040436	-0.00412	-0.001068
13.579	0.014954	0.081329	-0.051117	0.001526	-0.003662	-0.13565	0.048828	-0.002899	0.13809	-0.063934	0.09903	0.010834	0.005951	-0.017853	0.037384	0.021362	0.0383	-0.2153	0.46997	0.19531	-0.22232	-0.036621	0.041504	-0.023651	-0.030212	0.008392	-0.071106	-0.009918	0.2594	0.024414	-0.000305	-0.008545
13.58	0.017548	0.068359	-0.037689	-0.002289	0.007782	-0.11444	0.036926	0.003662	0.13809	-0.15533	0.14389	0.003967	0.028381	-0.053864	-0.029755	0.015106	0.067902	-0.15793	0.24582	0.072327	-0.27206	-0.10819	0.024872	0.013275	0.005951	-0.003662	-0.3537	-0.019073	-0.18219	0.048523	-0.001068	-0.005798
13.581	-0.009155	0.090179	-0.032043	-0.010376	0.008698	-0.093231	0.063019	0.009766	0.11215	-0.18249	0.2301	0	-0.035858	-0.038605	0.053864	0.011139	0.040131	-0.11108	0.023193	-0.031586	-0.052643	-0.11551	-0.013123	-0.027008	0.077362	0.010223	-0.22034	-0.010834	0.22797	0.089111	0.001526	-0.008545
13.582	0.007782	0.072937	-0.03891	-0.001831	0.020447	-0.1004	0.045624	0.006866	0.12054	-0.15381	0.1265	0.008087	-0.00412	-0.013275	0.07843	0.015564	0.010529	-0.096436	0.1152	-0.0354	-0.31891	-0.014648	-0.14633	-0.06424	0.11932	-0.017548	-0.20157	-0.012817	0.46097	0.1268	0.00061	-0.007019
13.583	-0.00412	0.065918	-0.060577	-0.009766	0.020294	-0.088806	0.058136	0.002289	0.10071	-0.08667	-0.13825	0.009918	0.05722	-0.018921	0.046082	0.015411	0.020142	-0.098267	0.40482	-0.045776	-0.3006	-0.045776	-0.10956	-0.16617	0.057678	-0.053558	-0.23468	-0.01358	-0.10315	0.10986	-0.000916	0.001831
13.584	0.024872	0.057678	-0.059814	0.00061	-0.049438	-0.053406	0.042267	-0.017853	0.08255	-0.030212	-0.16235	0.010529	0.12466	-0.055847	0.045013	0.014038	0.016479	-0.084229	0.12817	0.069122	-0.04776	-0.30594	-0.18005	0.06958	0.07431	-0.029907	-0.13473	-0.000458	-0.36057	0.15808	-0.000458	-0.009155
13.585	0.019531	0.045013	-0.062866	0.010071	-0.10498	-0.053558	0.035858	0.006104	0.07843	0.036011	-0.11261	0.012512	0.1503	-0.071106	-0.066528	0.023956	0.027161	-0.11612	0.00946	0.11795	0.30334	-0.26154	-0.23575	0.084991	0.076904	0.035248	-0.081482	0.007019	-0.63629	0.23025	-0.000763	-0.009308
13.586	0.026093	0.058136	-0.050354	-0.005798	0.002136	-0.052185	0.0737	0.001068	0.071411	0.066833	0.014191	0.011139	0.086365	-0.044861	-0.042572	0.022583	0.022736	-0.091553	0.056	0.081635	0.28015	-0.035248	-0.10025	0.078735	0.091705	0.088043	-0.078583	-0.00351	-0.23285	0.24551	0.002289	-0.00824
13.587	0.021515	0.029907	-0.039978	-0.00061	0.031433	-0.081329	0.063782	0.005341	0.053253	0.09964	0.080872	0.006256	0.1297	0.047607	-0.004883	0.024109	-0.028839	-0.11261	0.28122	-0.003662	0.29892	0.24902	-0.040894	0.066528	0.075989	0.077057	-0.040894	-0.005188	0.27527	0.29221	0.001984	-0.011139
13.588	0.013275	0.016022	-0.029602	0.013733	0.018616	-0.079041	0.052643	0.001678	0.062256	0.10193	0.066223	0.009003	0.11017	0.02182	-0.011597	0.011597	-0.10681	-0.082245	0.34607	-0.040283	0.40192	0.69107	-0.019531	0.094147	0.018768	-0.000763	0.003815	-0.022736	0.34668	0.26459	-0.000916	-0.008545
13.589	0.019684	-0.011749	-0.041962	0.002136	0.018921	-0.039215	0.068665	0	0.054779	0.070038	-0.00885	0.015411	0.13107	-0.17487	-0.011597	0.00351	-0.067444	-0.10117	0.75851	-0.074768	0.18677	0.4805	0.001984	0.11627	0.01358	-0.095825	0.01358	-0.021973	0.29648	0.19775	-0.000305	-0.009155
13.59	0.007629	-0.025635	-0.061188	0.009918	0.010681	-0.037537	0.057373	0.005798	0.049591	0.036469	-0.021057	0.002441	0.12878	-0.17395	-0.027313	0.005341	-0.037231	-0.11643	0.51239	-0.018921	-0.066833	0.23346	0.056458	0.058899	0.040894	-0.14954	0.037537	-0.025482	-0.024872	0.14099	-0.002136	-0.009613
13.591	0.017395	-0.017853	-0.050964	0.014496	0.010529	-0.047913	0.05249	0.001221	0.04715	0.009308	-0.032654	0.009003	0.12207	-0.14267	0.010376	-0.001984	-0.016022	-0.1091	0.23178	-0.045166	0.001984	0.15991	0.087585	0.00061	-0.013428	-0.10971	0.066223	-0.031891	-0.072632	0.083008	-0.000305	-0.005951
13.592	0.01236	-0.053864	-0.068054	0.009003	0.020447	-0.060272	0.056152	0.000916	0.046692	-0.007935	-0.084686	0.007019	0.13794	-0.15381	0.075531	0.007477	-0.009613	-0.16007	0.34271	-0.031891	0.11551	0.17868	0.13886	-0.002441	-0.050049	-0.065765	0.10696	-0.031281	-0.084686	-0.04715	0.00061	-0.013885
13.593	0.000153	-0.064392	-0.080261	-0.00824	0.012817	-0.036469	0.05722	0.006256	0.04776	-0.007629	-0.042877	0.015106	0.10895	-0.19592	0.080566	0.000916	0.010529	-0.23071	0.11993	-0.012207	0.15015	0.18814	0.18021	-0.041046	-0.095673	-0.013123	0.12283	-0.011902	-0.050964	-0.19211	-0.000458	-0.006409
13.594	-0.005951	-0.057526	-0.087585	0.000153	-0.016327	-0.086212	0.058594	0.000153	0.054474	-0.024567	0.000916	0.00824	0.081787	-0.20996	0.082092	-0.008392	0.048523	-0.19806	0.25574	-0.000916	0.14221	0.11322	0.15533	-0.11856	-0.15717	0.005798	0.12573	-0.010223	0.074463	-0.19424	0.000458	-0.022888
13.595	0.005951	-0.03891	-0.10056	-0.003967	-0.011597	-0.11154	0.040588	-0.004883	0.050049	-0.020752	0.010223	0.002594	0.037842	-0.24963	0.059509	0.010223	0.006714	-0.21759	-0.090485	0.044098	-0.10223	0.25559	0.038757	-0.077972	-0.19089	-0.034485	0.13611	0.001373	0.09964	-0.069275	0.000916	-0.022736
13.596	0.005646	-0.045166	-0.10605	0.011139	-0.001526	-0.10086	0.047913	0.00473	0.057831	0.003204	-0.011597	0.022583	0.036926	-0.18478	-0.005035	-0.00412	-0.020294	-0.16388	0.049438	0.011444	-0.25955	0.33981	-0.20035	0.12985	-0.053253	-0.057983	0.12909	0.073395	0.075378	-0.29343	0.00473	-0.023956
13.597	0.007172	-0.005798	-0.025482	0.004272	0	-0.080109	0.028076	-0.009155	0.057526	-0.003815	-0.049438	-0.002136	0.041504	-0.095215	0.031738	-0.000916	-0.022583	-0.072021	0.51697	-0.032043	-0.17349	0.36423	-0.31967	0.12665	0.034637	-0.056763	0.086212	-0.028229	0.064545	-0.40832	0.000916	-0.01297
13.598	0.016785	-0.008087	-0.010223	-0.001678	0.004578	-0.080719	0.00885	0.001221	0.063477	-0.012054	-0.050964	0.001221	0.024414	-0.088806	0.081329	-0.008698	-0.032959	0.031433	0.38086	-0.020599	0.15198	0.25589	-0.17517	0.043488	0.12238	-0.044861	0.041046	-0.040741	0.052795	-0.13809	0.001984	-0.010376
13.599	-0.001221	-0.040741	-0.024261	0.01297	0.012817	-0.096283	0.0354	-0.001221	0.04715	-0.014954	-0.030823	0.001068	0.07309	-0.078735	0.053101	0.007935	-0.027313	-0.13596	0.26352	-0.043182	0.21988	0.14313	-0.000153	0.034637	0.14725	-0.071106	0.066986	0.078735	-0.024261	-0.022278	0.004883	-0.012207
13.6	-0.007019	-0.046844	-0.046844	0.015869	0.017395	-0.079193	0.036774	-0.00351	0.049591	-0.024567	-0.005798	-0.003357	0.14832	-0.001221	0.010223	-0.007477	-0.031586	-0.18478	0.28915	-0.098724	0.1474	0.016785	-0.14786	0.12619	0.032043	-0.029755	0.13489	0.011444	-0.007629	0.074158	0.002594	-0.00824
13.601	0.001373	-0.014648	-0.091095	0.01297	0.016785	-0.097809	0.038452	0.000916	0.042114	-0.020752	0.10117	0.005951	0.16403	0.00412	0.039673	-0.006866	-0.008698	-0.1297	0.10742	-0.084686	0.06134	-0.12207	-0.17761	0.062256	-0.041504	0.061035	0.058289	-0.008545	-0.007477	0.30304	0.002899	0.006409
13.602	0	0.005951	-0.098267	0.017242	0.011597	-0.077057	0.046539	-0.009613	0.062103	-0.04837	0.13596	0.004883	0.15091	-0.029144	0.012512	-0.006104	0.034943	-0.1886	-0.080414	-0.046234	0.087128	-0.15411	-0.19974	-0.024261	-0.02121	0.054474	-0.082703	0.002289	-0.00824	0.46051	0.001373	-0.005798
